<svg width="50" height="50" viewBox="0 0 50 50" fill="none" xmlns="http://www.w3.org/2000/svg">
<circle opacity="0.05" cx="25" cy="25" r="24" stroke="white" stroke-width="2"/>
<g clip-path="url(#clip0_141_69)">
<path d="M25 15.417C19.475 15.417 15 19.817 15 25.2437C15 29.5862 17.865 33.2687 21.8375 34.567C22.3375 34.6595 22.5208 34.3553 22.5208 34.0945C22.5208 33.8612 22.5125 33.2428 22.5083 32.4237C19.7267 33.0162 19.14 31.1053 19.14 31.1053C18.685 29.9712 18.0275 29.6678 18.0275 29.6678C17.1217 29.0587 18.0975 29.0712 18.0975 29.0712C19.1017 29.1395 19.6292 30.0837 19.6292 30.0837C20.5208 31.5862 21.97 31.152 22.5417 30.9012C22.6317 30.2653 22.8892 29.8328 23.175 29.587C20.9542 29.3412 18.62 28.4962 18.62 24.7312C18.62 23.6587 19.0075 22.782 19.6492 22.0945C19.5367 21.8462 19.1992 20.847 19.7367 19.4937C19.7367 19.4937 20.5742 19.2303 22.4867 20.5012C23.2867 20.2828 24.1367 20.1745 24.9867 20.1695C25.8367 20.1745 26.6867 20.2828 27.4867 20.5012C29.3867 19.2303 30.2242 19.4937 30.2242 19.4937C30.7617 20.847 30.4242 21.8462 30.3242 22.0945C30.9617 22.782 31.3492 23.6587 31.3492 24.7312C31.3492 28.5062 29.0117 29.337 26.7867 29.5787C27.1367 29.8737 27.4617 30.4762 27.4617 31.397C27.4617 32.712 27.4492 33.7687 27.4492 34.0878C27.4492 34.3453 27.6242 34.6528 28.1367 34.5545C32.1375 33.2645 35 29.5795 35 25.2437C35 19.817 30.5225 15.417 25 15.417Z" fill="white"/>
</g>
<defs>
<clipPath id="clip0_141_69">
<rect width="20" height="20" fill="white" transform="translate(15 15)"/>
</clipPath>
</defs>
</svg>
