<svg width="50" height="50" viewBox="0 0 50 50" fill="none" xmlns="http://www.w3.org/2000/svg">
<circle opacity="0.05" cx="25" cy="25" r="24" stroke="white" stroke-width="2"/>
<g clip-path="url(#clip0_141_67)">
<path d="M29.166 16.6665H20.8327C18.5315 16.6665 16.666 18.532 16.666 20.8332V29.1665C16.666 31.4677 18.5315 33.3332 20.8327 33.3332H29.166C31.4672 33.3332 33.3327 31.4677 33.3327 29.1665V20.8332C33.3327 18.532 31.4672 16.6665 29.166 16.6665Z" stroke="white" stroke-width="2" stroke-linecap="round" stroke-linejoin="round"/>
<path d="M28.3337 24.4753C28.4366 25.1688 28.3181 25.8771 27.9952 26.4994C27.6723 27.1218 27.1614 27.6264 26.5351 27.9416C25.9088 28.2569 25.1991 28.3666 24.5069 28.2552C23.8147 28.1438 23.1752 27.817 22.6794 27.3212C22.1837 26.8254 21.8569 26.186 21.7455 25.4938C21.6341 24.8015 21.7438 24.0918 22.059 23.4656C22.3742 22.8393 22.8789 22.3284 23.5012 22.0055C24.1236 21.6825 24.8319 21.5641 25.5254 21.6669C26.2328 21.7718 26.8878 22.1015 27.3935 22.6072C27.8992 23.1129 28.2288 23.7678 28.3337 24.4753Z" stroke="white" stroke-width="2" stroke-linecap="round" stroke-linejoin="round"/>
<path d="M29.584 20.4165H29.5923" stroke="white" stroke-width="2" stroke-linecap="round" stroke-linejoin="round"/>
</g>
<defs>
<clipPath id="clip0_141_67">
<rect width="20" height="20" fill="white" transform="translate(15 15)"/>
</clipPath>
</defs>
</svg>
