<svg width="50" height="50" viewBox="0 0 50 50" fill="none" xmlns="http://www.w3.org/2000/svg">
<circle opacity="0.05" cx="25" cy="25" r="24" stroke="white" stroke-width="2"/>
<g clip-path="url(#clip0_141_70)">
<path d="M33.4042 18.9438L35 17.4172V17.083H29.4717L25.5317 26.8897L21.0492 17.083H15.2525V17.4172L17.1167 19.6613C17.2983 19.8272 17.3933 20.0697 17.3692 20.3138V29.133C17.4267 29.4505 17.3233 29.7772 17.1 30.008L15 32.553V32.883H20.9542V32.5488L18.8542 30.008C18.6267 29.7763 18.5192 29.4555 18.565 29.133V21.5047L23.7917 32.8872H24.3992L28.8933 21.5047V30.5722C28.8933 30.8113 28.8933 30.8605 28.7367 31.0172L27.12 32.5813V32.9163H34.9633V32.5822L33.405 31.0563C33.2683 30.953 33.1975 30.7797 33.2267 30.6113V19.3888C33.1975 19.2197 33.2675 19.0463 33.4042 18.9438Z" fill="white"/>
</g>
<defs>
<clipPath id="clip0_141_70">
<rect width="20" height="20" fill="white" transform="translate(15 15)"/>
</clipPath>
</defs>
</svg>
