<svg width="50" height="50" viewBox="0 0 50 50" fill="none" xmlns="http://www.w3.org/2000/svg">
<circle opacity="0.05" cx="25" cy="25" r="24" stroke="white" stroke-width="2"/>
<g clip-path="url(#clip0_141_68)">
<path d="M32.7708 22.757C32.1391 22.757 31.5833 23.0228 31.1741 23.437C29.67 22.3803 27.6416 21.7003 25.3941 21.6278L26.5616 16.2895L30.2791 17.1362C30.2791 18.0595 31.0208 18.8137 31.9308 18.8137C32.8583 18.8137 33.6041 18.0395 33.6041 17.1153C33.6041 16.1912 32.8633 15.417 31.9316 15.417C31.2825 15.417 30.7225 15.8145 30.4433 16.3578L26.3375 15.4345C26.1308 15.3787 25.9283 15.5287 25.8733 15.7387L24.5916 21.6237C22.3616 21.7178 20.355 22.397 18.8458 23.4545C18.4366 23.0228 17.8591 22.757 17.2275 22.757C14.8841 22.757 14.1166 25.9478 16.2625 27.0387C16.1866 27.3762 16.1525 27.7362 16.1525 28.0953C16.1525 31.6795 20.1316 34.5837 25.0175 34.5837C29.9241 34.5837 33.9033 31.6795 33.9033 28.0953C33.9033 27.7362 33.8658 27.3595 33.7733 27.0212C35.8758 25.9262 35.1016 22.7587 32.7708 22.757ZM19.6675 27.2653C19.6675 26.3245 20.4091 25.567 21.3408 25.567C22.2508 25.567 22.9933 26.3195 22.9933 27.2653C22.9933 28.1895 22.2516 28.9428 21.3408 28.9428C20.4133 28.947 19.6675 28.1895 19.6675 27.2653ZM28.7 31.2637C27.1658 32.8203 22.8366 32.8203 21.3016 31.2637C21.1325 31.1137 21.1325 30.8487 21.3016 30.6778C21.4491 30.5278 21.7108 30.5278 21.8583 30.6778C23.03 31.897 26.9166 31.9178 28.1391 30.6778C28.2866 30.5278 28.5483 30.5278 28.6958 30.6778C28.8683 30.8495 28.8683 31.1145 28.7 31.2637ZM28.6658 28.9462C27.7558 28.9462 27.0141 28.1937 27.0141 27.2703C27.0141 26.3295 27.7558 25.572 28.6658 25.572C29.5933 25.572 30.3391 26.3245 30.3391 27.2703C30.335 28.1895 29.5933 28.9462 28.6658 28.9462Z" fill="white"/>
</g>
<defs>
<clipPath id="clip0_141_68">
<rect width="20" height="20" fill="white" transform="translate(15 15)"/>
</clipPath>
</defs>
</svg>
