<svg width="24" height="24" viewBox="0 0 24 24" fill="none" xmlns="http://www.w3.org/2000/svg">
<g clip-path="url(#clip0_104_169)">
<path d="M1.32622 12.4L4.88622 15L3.53422 19.187C3.31573 19.8363 3.31296 20.539 3.52633 21.19C3.73969 21.8411 4.15776 22.4058 4.71822 22.8C5.26907 23.2067 5.93661 23.4247 6.62137 23.4212C7.30613 23.4178 7.97146 23.1932 8.51822 22.781L11.9992 20.219L15.4812 22.778C16.0311 23.1824 16.695 23.4021 17.3776 23.4054C18.0602 23.4087 18.7262 23.1955 19.28 22.7965C19.8338 22.3974 20.2467 21.833 20.4595 21.1844C20.6723 20.5359 20.6739 19.8365 20.4642 19.187L19.1122 15L22.6722 12.4C23.2214 11.9985 23.6296 11.4337 23.8386 10.7863C24.0476 10.139 24.0466 9.44214 23.8359 8.79534C23.6252 8.14854 23.2155 7.58488 22.6652 7.18486C22.115 6.78484 21.4525 6.56892 20.7722 6.56796H16.3992L15.0722 2.43195C14.8635 1.78091 14.4535 1.21297 13.9012 0.81002C13.3489 0.407071 12.6829 0.189941 11.9992 0.189941C11.3155 0.189941 10.6495 0.407071 10.0972 0.81002C9.54495 1.21297 9.1349 1.78091 8.92622 2.43195L7.59922 6.56796H3.23022C2.54996 6.56892 1.88741 6.78484 1.3372 7.18486C0.786984 7.58488 0.377257 8.14854 0.166538 8.79534C-0.0441816 9.44214 -0.0451143 10.139 0.163873 10.7863C0.37286 11.4337 0.781077 11.9985 1.33022 12.4H1.32622Z" fill="#191F30"/>
</g>
<defs>
<clipPath id="clip0_104_169">
<rect width="24" height="24" fill="white"/>
</clipPath>
</defs>
</svg>
