<svg width="50" height="50" viewBox="0 0 50 50" fill="none" xmlns="http://www.w3.org/2000/svg">
<circle opacity="0.05" cx="25" cy="25" r="24" stroke="white" stroke-width="2"/>
<path d="M34.1673 17.5001C33.3693 18.063 32.4857 18.4935 31.5506 18.7751C31.0488 18.198 30.3818 17.789 29.6398 17.6034C28.8979 17.4177 28.1169 17.4644 27.4024 17.7371C26.6879 18.0098 26.0744 18.4954 25.6448 19.1282C25.2153 19.7609 24.9904 20.5104 25.0007 21.2751V22.1084C23.5362 22.1464 22.085 21.8216 20.7765 21.163C19.4679 20.5043 18.3426 19.5323 17.5007 18.3334C17.5007 18.3334 14.1673 25.8334 21.6673 29.1667C19.9511 30.3317 17.9066 30.9159 15.834 30.8334C23.334 35.0001 32.5006 30.8334 32.5006 21.2501C32.4999 21.018 32.4776 20.7864 32.434 20.5584C33.2845 19.7197 33.8847 18.6607 34.1673 17.5001Z" fill="white"/>
</svg>
